<?xml version="1.0" encoding="UTF-8"?>
<!DOCTYPE svg PUBLIC "-//W3C//DTD SVG 1.1//EN" "http://www.w3.org/Graphics/SVG/1.1/DTD/svg11.dtd">
<svg version="1.2" width="94.8mm" height="19.7mm" viewBox="0 0 9480 1970" preserveAspectRatio="xMidYMid" fill-rule="evenodd" stroke-width="28.222" stroke-linejoin="round" xmlns="http://www.w3.org/2000/svg" xmlns:ooo="http://xml.openoffice.org/svg/export" xmlns:xlink="http://www.w3.org/1999/xlink" xmlns:presentation="http://sun.com/xmlns/staroffice/presentation" xmlns:smil="http://www.w3.org/2001/SMIL20/" xmlns:anim="urn:oasis:names:tc:opendocument:xmlns:animation:1.0" xml:space="preserve">
 <defs class="ClipPathGroup">
  <clipPath id="presentation_clip_path" clipPathUnits="userSpaceOnUse">
   <rect x="0" y="0" width="9480" height="1970"/>
  </clipPath>
  <clipPath id="presentation_clip_path_shrink" clipPathUnits="userSpaceOnUse">
   <rect x="9" y="1" width="9462" height="1967"/>
  </clipPath>
 </defs>
 <defs class="TextShapeIndex">
  <g ooo:slide="id1" ooo:id-list="id3 id4 id5 id6 id7 id8 id9 id10 id11"/>
 </defs>
 <defs class="EmbeddedBulletChars">
  <g id="bullet-char-template-57356" transform="scale(0.00048828125,-0.00048828125)">
   <path d="M 580,1141 L 1163,571 580,0 -4,571 580,1141 Z"/>
  </g>
  <g id="bullet-char-template-57354" transform="scale(0.00048828125,-0.00048828125)">
   <path d="M 8,1128 L 1137,1128 1137,0 8,0 8,1128 Z"/>
  </g>
  <g id="bullet-char-template-10146" transform="scale(0.00048828125,-0.00048828125)">
   <path d="M 174,0 L 602,739 174,1481 1456,739 174,0 Z M 1358,739 L 309,1346 659,739 1358,739 Z"/>
  </g>
  <g id="bullet-char-template-10132" transform="scale(0.00048828125,-0.00048828125)">
   <path d="M 2015,739 L 1276,0 717,0 1260,543 174,543 174,936 1260,936 717,1481 1274,1481 2015,739 Z"/>
  </g>
  <g id="bullet-char-template-10007" transform="scale(0.00048828125,-0.00048828125)">
   <path d="M 0,-2 C -7,14 -16,27 -25,37 L 356,567 C 262,823 215,952 215,954 215,979 228,992 255,992 264,992 276,990 289,987 310,991 331,999 354,1012 L 381,999 492,748 772,1049 836,1024 860,1049 C 881,1039 901,1025 922,1006 886,937 835,863 770,784 769,783 710,716 594,584 L 774,223 C 774,196 753,168 711,139 L 727,119 C 717,90 699,76 672,76 641,76 570,178 457,381 L 164,-76 C 142,-110 111,-127 72,-127 30,-127 9,-110 8,-76 1,-67 -2,-52 -2,-32 -2,-23 -1,-13 0,-2 Z"/>
  </g>
  <g id="bullet-char-template-10004" transform="scale(0.00048828125,-0.00048828125)">
   <path d="M 285,-33 C 182,-33 111,30 74,156 52,228 41,333 41,471 41,549 55,616 82,672 116,743 169,778 240,778 293,778 328,747 346,684 L 369,508 C 377,444 397,411 428,410 L 1163,1116 C 1174,1127 1196,1133 1229,1133 1271,1133 1292,1118 1292,1087 L 1292,965 C 1292,929 1282,901 1262,881 L 442,47 C 390,-6 338,-33 285,-33 Z"/>
  </g>
  <g id="bullet-char-template-9679" transform="scale(0.00048828125,-0.00048828125)">
   <path d="M 813,0 C 632,0 489,54 383,161 276,268 223,411 223,592 223,773 276,916 383,1023 489,1130 632,1184 813,1184 992,1184 1136,1130 1245,1023 1353,916 1407,772 1407,592 1407,412 1353,268 1245,161 1136,54 992,0 813,0 Z"/>
  </g>
  <g id="bullet-char-template-8226" transform="scale(0.00048828125,-0.00048828125)">
   <path d="M 346,457 C 273,457 209,483 155,535 101,586 74,649 74,723 74,796 101,859 155,911 209,963 273,989 346,989 419,989 480,963 531,910 582,859 608,796 608,723 608,648 583,586 532,535 482,483 420,457 346,457 Z"/>
  </g>
  <g id="bullet-char-template-8211" transform="scale(0.00048828125,-0.00048828125)">
   <path d="M -4,459 L 1135,459 1135,606 -4,606 -4,459 Z"/>
  </g>
  <g id="bullet-char-template-61548" transform="scale(0.00048828125,-0.00048828125)">
   <path d="M 173,740 C 173,903 231,1043 346,1159 462,1274 601,1332 765,1332 928,1332 1067,1274 1183,1159 1299,1043 1357,903 1357,740 1357,577 1299,437 1183,322 1067,206 928,148 765,148 601,148 462,206 346,322 231,437 173,577 173,740 Z"/>
  </g>
 </defs>
 <defs class="TextEmbeddedBitmaps"/>
 <g>
  <g id="id2" class="Master_Slide">
   <g id="bg-id2" class="Background"/>
   <g id="bo-id2" class="BackgroundObjects"/>
  </g>
 </g>
 <g class="SlideGroup">
  <g>
   <g id="container-id1">
    <g id="id1" class="Slide" clip-path="url(#presentation_clip_path)">
     <g class="Page">
      <g class="Group">
       <g class="com.sun.star.drawing.ClosedBezierShape">
        <g id="id3">
         <rect class="BoundingBox" stroke="none" fill="none" x="8053" y="411" width="1427" height="910"/>
         <path fill="rgb(35,31,32)" stroke="none" d="M 8767,1272 C 8555,1272 8368,1102 8368,864 8368,628 8555,457 8767,457 8977,457 9164,628 9164,864 9164,1102 8977,1272 8767,1272 Z M 8767,411 C 8353,411 8054,601 8054,864 8054,1128 8353,1319 8767,1319 9178,1319 9479,1128 9479,864 9479,601 9178,411 8767,411 Z"/>
        </g>
       </g>
       <g class="com.sun.star.drawing.ClosedBezierShape">
        <g id="id4">
         <rect class="BoundingBox" stroke="none" fill="none" x="6633" y="409" width="1438" height="1562"/>
         <path fill="rgb(35,31,32)" stroke="none" d="M 7866,1733 C 7846,1758 7819,1779 7786,1798 7648,1870 7477,1909 7273,1913 7070,1917 6921,1895 6827,1850 6734,1804 6688,1742 6692,1662 6694,1595 6725,1539 6784,1493 6828,1514 6868,1528 6903,1535 6939,1544 6991,1549 7061,1549 L 7686,1549 C 7754,1549 7806,1559 7843,1580 7875,1598 7892,1622 7894,1652 7896,1682 7886,1709 7866,1733 Z M 7098,591 C 7143,525 7207,493 7289,493 7352,494 7404,509 7442,539 7514,595 7549,681 7550,796 7550,886 7524,959 7470,1016 7421,1076 7361,1106 7289,1106 7214,1106 7151,1078 7101,1022 7053,968 7029,896 7029,808 7029,723 7052,651 7098,591 Z M 7574,1300 L 7057,1300 C 6952,1300 6891,1277 6873,1231 6865,1208 6870,1183 6891,1156 6909,1129 6934,1107 6968,1089 L 6968,1093 C 7058,1128 7163,1145 7283,1145 7445,1144 7581,1112 7691,1048 7806,976 7864,892 7864,796 7864,713 7833,644 7771,591 L 7768,588 C 7752,572 7761,560 7761,560 7798,537 7824,519 7838,508 7846,502 7851,493 7851,483 L 7851,441 C 7851,415 7823,400 7802,414 7771,434 7728,462 7675,492 7645,507 7616,504 7601,500 7597,499 7594,498 7590,497 L 7589,496 7589,497 C 7566,490 7543,484 7517,479 L 7442,468 C 7380,459 7332,454 7298,455 7126,455 6988,489 6882,556 6773,623 6718,706 6718,806 6718,861 6739,912 6779,960 6819,1007 6870,1046 6934,1076 6779,1136 6690,1209 6666,1295 6660,1320 6662,1349 6673,1381 6685,1413 6709,1443 6746,1473 6673,1528 6635,1593 6633,1669 6632,1715 6644,1758 6671,1799 6698,1839 6742,1872 6803,1897 6923,1948 7081,1971 7278,1969 7475,1966 7646,1936 7790,1877 7976,1803 8069,1705 8069,1584 8067,1395 7902,1300 7574,1300 Z"/>
        </g>
       </g>
       <g class="com.sun.star.drawing.ClosedBezierShape">
        <g id="id5">
         <rect class="BoundingBox" stroke="none" fill="none" x="1020" y="151" width="918" height="1179"/>
         <path fill="rgb(35,31,32)" stroke="none" d="M 1929,1222 L 1933,1219 1934,1219 1934,1218 1937,1211 C 1937,1204 1931,1198 1924,1198 L 1916,1201 C 1880,1221 1808,1235 1671,1235 1566,1235 1532,1208 1532,1128 L 1532,525 C 1532,505 1548,489 1568,489 L 1871,489 C 1890,489 1906,473 1906,453 L 1906,443 C 1906,423 1890,407 1871,407 L 1568,407 C 1548,407 1532,391 1532,371 L 1532,188 C 1532,168 1516,152 1496,152 1480,151 1462,173 1462,173 1333,328 1152,452 1027,466 1027,466 1020,470 1020,476 1020,489 1028,489 1033,489 L 1177,489 C 1198,489 1214,505 1214,525 L 1214,1091 C 1214,1270 1288,1328 1513,1328 1681,1328 1851,1277 1929,1222 Z"/>
        </g>
       </g>
       <g class="com.sun.star.drawing.ClosedBezierShape">
        <g id="id6">
         <rect class="BoundingBox" stroke="none" fill="none" x="4493" y="1" width="276" height="281"/>
         <path fill="rgb(35,31,32)" stroke="none" d="M 4631,281 C 4711,281 4768,223 4768,140 4768,59 4711,1 4631,1 4550,1 4493,59 4493,140 4493,223 4550,281 4631,281 Z"/>
        </g>
       </g>
       <g class="com.sun.star.drawing.ClosedBezierShape">
        <g id="id7">
         <rect class="BoundingBox" stroke="none" fill="none" x="1324" y="406" width="2269" height="1506"/>
         <path fill="rgb(35,31,32)" stroke="none" d="M 3582,407 L 3202,407 3202,408 C 3198,409 3194,412 3194,416 3194,421 3198,424 3202,425 L 3221,427 C 3280,431 3305,466 3280,513 L 2928,1076 2551,524 C 2515,471 2534,431 2595,427 L 2614,425 2614,424 C 2618,423 2621,420 2621,416 2621,412 2618,410 2614,408 L 2614,407 1976,407 1976,408 C 1972,409 1969,412 1969,416 1969,420 1972,424 1976,424 L 1976,425 C 2062,433 2137,460 2184,518 L 2641,1159 C 2662,1194 2690,1264 2655,1353 2616,1456 2524,1602 2306,1712 1929,1901 1466,1803 1466,1803 1466,1803 1304,1751 1326,1828 1362,1901 1651,1910 1760,1910 1869,1910 2289,1928 2629,1560 2699,1482 2762,1407 2818,1337 L 2820,1336 2823,1331 C 3072,1018 3184,801 3185,801 L 3382,511 C 3426,456 3499,433 3582,425 3587,425 3591,421 3591,416 3591,411 3587,407 3582,407 Z"/>
        </g>
       </g>
       <g class="com.sun.star.drawing.ClosedBezierShape">
        <g id="id8">
         <rect class="BoundingBox" stroke="none" fill="none" x="3560" y="7" width="626" height="1313"/>
         <path fill="rgb(35,31,32)" stroke="none" d="M 4175,1300 L 4175,1301 4153,1299 C 4081,1295 4031,1255 4031,1202 L 4031,7 3967,7 3568,89 3564,94 3568,99 C 3676,127 3712,147 3712,229 L 3712,1202 C 3712,1255 3662,1295 3590,1299 L 3569,1300 3568,1301 C 3563,1302 3560,1305 3560,1310 3560,1314 3563,1317 3568,1318 L 3568,1319 4175,1319 C 4181,1319 4185,1315 4185,1310 4185,1304 4181,1300 4175,1300 Z"/>
        </g>
       </g>
       <g class="com.sun.star.drawing.ClosedBezierShape">
        <g id="id9">
         <rect class="BoundingBox" stroke="none" fill="none" x="4343" y="407" width="627" height="913"/>
         <path fill="rgb(35,31,32)" stroke="none" d="M 4958,1300 L 4958,1301 4936,1299 C 4864,1295 4814,1255 4814,1202 L 4814,407 4751,407 4354,488 4353,489 4350,489 4350,490 4348,494 4350,499 4350,500 C 4459,527 4495,547 4495,629 L 4495,1202 C 4495,1255 4445,1295 4373,1299 L 4352,1300 4350,1301 C 4346,1302 4343,1305 4343,1310 4343,1314 4346,1317 4350,1318 L 4350,1319 4958,1319 C 4963,1319 4968,1315 4968,1310 4968,1304 4963,1300 4958,1300 Z"/>
        </g>
       </g>
       <g class="com.sun.star.drawing.ClosedBezierShape">
        <g id="id10">
         <rect class="BoundingBox" stroke="none" fill="none" x="5122" y="398" width="1463" height="923"/>
         <path fill="rgb(35,31,32)" stroke="none" d="M 6575,1301 L 6574,1300 6553,1299 C 6481,1295 6431,1255 6431,1202 L 6431,702 C 6431,526 6332,398 6107,398 5932,398 5727,453 5594,531 L 5594,407 5531,407 5132,489 5131,488 C 5127,488 5125,491 5125,494 5125,498 5127,500 5131,500 5239,528 5275,548 5275,629 L 5275,1202 C 5275,1255 5225,1295 5153,1299 L 5131,1300 C 5126,1300 5122,1304 5122,1310 5122,1314 5126,1318 5131,1319 L 5737,1319 5738,1319 5738,1318 C 5743,1317 5746,1314 5746,1310 5746,1305 5743,1302 5738,1301 L 5737,1300 5716,1299 C 5644,1295 5594,1255 5594,1202 L 5594,562 C 5650,547 5750,538 5863,538 6038,538 6113,617 6113,724 L 6113,1202 C 6113,1255 6063,1295 5991,1299 L 5970,1300 5968,1301 C 5964,1302 5961,1305 5961,1310 5961,1314 5964,1317 5968,1318 L 5968,1319 5970,1319 6574,1319 6575,1319 6575,1318 C 6580,1317 6583,1314 6583,1310 6583,1305 6580,1302 6575,1301 Z"/>
        </g>
       </g>
       <g class="com.sun.star.drawing.ClosedBezierShape">
        <g id="id11">
         <rect class="BoundingBox" stroke="none" fill="none" x="2" y="398" width="980" height="910"/>
         <path fill="rgb(35,31,32)" stroke="none" d="M 16,1099 C 32,1124 84,1189 217,1230 325,1264 459,1265 461,1265 514,1265 556,1256 586,1237 615,1219 638,1191 638,1152 638,1082 554,1022 381,969 L 366,965 C 221,920 124,879 77,840 32,802 9,754 9,694 9,605 55,533 145,480 236,426 363,398 520,398 580,398 642,402 705,410 759,417 815,426 871,438 883,441 892,451 892,463 L 892,601 C 892,601 890,607 886,605 L 881,602 C 872,579 833,509 722,479 612,441 509,441 504,441 452,441 408,451 376,470 341,491 323,518 323,552 323,607 407,658 586,713 600,717 610,720 617,722 772,769 872,812 916,850 960,887 981,935 981,997 981,1088 934,1162 840,1219 745,1277 619,1307 466,1307 391,1307 313,1301 235,1289 166,1278 94,1262 22,1242 10,1238 2,1228 2,1217 L 2,1100 C 2,1100 3,1095 8,1094 13,1094 16,1099 16,1099 Z"/>
        </g>
       </g>
      </g>
     </g>
    </g>
   </g>
  </g>
 </g>
</svg>